<?xml version="1.0" encoding="UTF-8" standalone="no"?>
<!-- Created with Inkscape (http://www.inkscape.org/) -->

<svg
   xmlns:dc="http://purl.org/dc/elements/1.1/"
   xmlns:cc="http://creativecommons.org/ns#"
   xmlns:rdf="http://www.w3.org/1999/02/22-rdf-syntax-ns#"
   xmlns:svg="http://www.w3.org/2000/svg"
   xmlns="http://www.w3.org/2000/svg"
   xmlns:sodipodi="http://sodipodi.sourceforge.net/DTD/sodipodi-0.dtd"
   xmlns:inkscape="http://www.inkscape.org/namespaces/inkscape"
   width="69.126549mm"
   height="68.897987mm"
   viewBox="0 0 244.93659 244.12673"
   id="svg2"
   version="1.1"
   inkscape:version="0.91 r13725"
   sodipodi:docname="thunder and lighting.svg">
  <defs
     id="defs4">
    <clipPath
       id="clipEmfPath1"
       clipPathUnits="userSpaceOnUse">
      <path
         inkscape:connector-curvature="0"
         id="path3341"
         d="m 10.0023,16.2537 873.9497,0 0,890.2033 -873.9497,0 z" />
    </clipPath>
    <pattern
       y="0"
       x="0"
       height="6"
       width="6"
       patternUnits="userSpaceOnUse"
       id="EMFhbasepattern" />
    <clipPath
       id="clipEmfPath1-8"
       clipPathUnits="userSpaceOnUse">
      <path
         inkscape:connector-curvature="0"
         id="path3413"
         d="m 10.0023,16.2537 873.9497,0 0,871.4493 -873.9497,0 z" />
    </clipPath>
    <pattern
       y="0"
       x="0"
       height="6"
       width="6"
       patternUnits="userSpaceOnUse"
       id="EMFhbasepattern-9" />
  </defs>
  <sodipodi:namedview
     id="base"
     pagecolor="#ffffff"
     bordercolor="#666666"
     borderopacity="1.0"
     inkscape:pageopacity="0.0"
     inkscape:pageshadow="2"
     inkscape:zoom="0.35"
     inkscape:cx="180.32544"
     inkscape:cy="110.63479"
     inkscape:document-units="px"
     inkscape:current-layer="layer1"
     showgrid="false"
     inkscape:window-width="1366"
     inkscape:window-height="706"
     inkscape:window-x="-8"
     inkscape:window-y="-8"
     inkscape:window-maximized="1"
     fit-margin-top="0"
     fit-margin-left="0"
     fit-margin-right="0"
     fit-margin-bottom="0" />
  <metadata
     id="metadata7">
    <rdf:RDF>
      <cc:Work
         rdf:about="">
        <dc:format>image/svg+xml</dc:format>
        <dc:type
           rdf:resource="http://purl.org/dc/dcmitype/StillImage" />
        <dc:title></dc:title>
      </cc:Work>
    </rdf:RDF>
  </metadata>
  <g
     inkscape:label="Layer 1"
     inkscape:groupmode="layer"
     id="layer1"
     transform="translate(-194.67456,-398.87028)">
    <path
       inkscape:connector-curvature="0"
       id="path3416"
       d="m 305.80055,467.60621 c -22.86959,3.02147 -39.71854,18.01791 -37.66763,33.49978 2.0509,15.45956 22.25209,25.538 45.09967,22.51653 22.8696,-3.0432 39.71855,-18.03964 37.66764,-33.52151 -2.05091,-15.45957 -22.2521,-25.53801 -45.09968,-22.4948 z"
       style="fill:#a6a6a6;fill-opacity:1;fill-rule:evenodd;stroke:none" />
    <path
       inkscape:connector-curvature="0"
       id="path3418"
       d="m 305.80055,467.60621 c -22.86959,3.02147 -39.71854,18.01791 -37.66763,33.49978 2.0509,15.45956 22.25209,25.538 45.09967,22.51653 22.8696,-3.0432 39.71855,-18.03964 37.66764,-33.52151 -2.05091,-15.45957 -22.2521,-25.53801 -45.09968,-22.4948"
       style="fill:none;stroke:#000000;stroke-width:0.94830716px;stroke-linecap:butt;stroke-linejoin:round;stroke-miterlimit:4;stroke-dasharray:none;stroke-opacity:1" />
    <path
       inkscape:connector-curvature="0"
       id="path3420"
       d="m 364.3309,457.88055 c -26.79502,3.55063 -46.79781,19.34125 -44.68058,35.24193 2.11695,15.9227 25.53801,25.9351 52.33332,22.38446 26.79502,-3.57265 46.7978,-19.34125 44.68057,-35.26395 -2.11723,-15.9227 -25.538,-25.9351 -52.33331,-22.36244 z"
       style="fill:#a6a6a6;fill-opacity:1;fill-rule:evenodd;stroke:none" />
    <path
       inkscape:connector-curvature="0"
       id="path3422"
       d="m 364.3309,457.88055 c -26.79502,3.55063 -46.79781,19.34125 -44.68058,35.24193 2.11695,15.9227 25.53801,25.9351 52.33332,22.38446 26.79502,-3.57265 46.7978,-19.34125 44.68057,-35.26395 -2.11723,-15.9227 -25.538,-25.9351 -52.33331,-22.36244"
       style="fill:none;stroke:#000000;stroke-width:0.94830716px;stroke-linecap:butt;stroke-linejoin:round;stroke-miterlimit:4;stroke-dasharray:none;stroke-opacity:1" />
    <path
       inkscape:connector-curvature="0"
       id="path3424"
       d="m 226.29714,436.59901 c -10.03444,17.79722 -5.09439,39.6082 11.04872,48.69434 16.12138,9.08615 37.33687,2.00689 47.37128,-15.81234 10.0124,-17.81951 5.07238,-39.63049 -11.04872,-48.69457 -16.14339,-9.08611 -37.35888,-2.00688 -47.37128,15.81257 z"
       style="fill:#a6a6a6;fill-opacity:1;fill-rule:evenodd;stroke:none" />
    <path
       inkscape:connector-curvature="0"
       id="path3426"
       d="m 226.29714,436.59901 c -10.03444,17.79722 -5.09439,39.6082 11.04872,48.69434 16.12138,9.08615 37.33687,2.00689 47.37128,-15.81234 10.0124,-17.81951 5.07238,-39.63049 -11.04872,-48.69457 -16.14339,-9.08611 -37.35888,-2.00688 -47.37128,15.81257"
       style="fill:none;stroke:#000000;stroke-width:0.94830716px;stroke-linecap:butt;stroke-linejoin:round;stroke-miterlimit:4;stroke-dasharray:none;stroke-opacity:1" />
    <path
       transform="matrix(0.28222222,0,0,0.28222222,190.6584,393.13115)"
       inkscape:connector-curvature="0"
       id="path3428"
       d="M 364.38,24.3806 C 292.332,36.4927 241.696,92.3649 251.307,149.097 260.919,205.828 327.106,241.93 399.154,229.74 471.202,217.55 521.838,161.678 512.227,104.946 502.615,48.2923 436.428,12.1903 364.38,24.3806 Z"
       clip-path="url(#clipEmfPath1-8)"
       style="fill:#a6a6a6;fill-opacity:1;fill-rule:evenodd;stroke:none" />
    <path
       transform="matrix(0.28222222,0,0,0.28222222,190.6584,393.13115)"
       inkscape:connector-curvature="0"
       id="path3430"
       d="M 364.38,24.3806 C 292.332,36.4927 241.696,92.3649 251.307,149.097 260.919,205.828 327.106,241.93 399.154,229.74 471.202,217.55 521.838,161.678 512.227,104.946 502.615,48.2923 436.428,12.1903 364.38,24.3806"
       clip-path="url(#clipEmfPath1-8)"
       style="fill:none;stroke:#000000;stroke-width:3.36014342px;stroke-linecap:butt;stroke-linejoin:round;stroke-miterlimit:4;stroke-dasharray:none;stroke-opacity:1" />
    <path
       inkscape:connector-curvature="0"
       id="path3432"
       d="m 403.785,429.25503 c -19.53965,0 -35.352,11.51212 -35.352,25.71468 0,14.20255 15.81235,25.71439 35.352,25.71439 19.51736,0 35.352,-11.51184 35.352,-25.71439 0,-14.20256 -15.83464,-25.71468 -35.352,-25.71468 z"
       style="fill:#a6a6a6;fill-opacity:1;fill-rule:evenodd;stroke:none" />
    <path
       transform="matrix(0.28222222,0,0,0.28222222,190.6584,393.13115)"
       inkscape:connector-curvature="0"
       id="path3434"
       d="m 755.173,127.998 c -69.235,0 -125.263,40.791 -125.263,91.115 0,50.324 56.028,91.114 125.263,91.114 69.156,0 125.263,-40.79 125.263,-91.114 0,-50.324 -56.107,-91.115 -125.263,-91.115"
       clip-path="url(#clipEmfPath1-8)"
       style="fill:none;stroke:#000000;stroke-width:3.36014342px;stroke-linecap:butt;stroke-linejoin:round;stroke-miterlimit:4;stroke-dasharray:none;stroke-opacity:1" />
    <path
       inkscape:connector-curvature="0"
       id="path3436"
       d="m 367.33036,408.48048 c -29.33136,0 -53.08318,10.40934 -53.08318,23.22254 0,12.83519 23.75182,23.22238 53.08318,23.22238 29.30906,0 53.08289,-10.38719 53.08289,-23.22238 0,-12.8132 -23.77383,-23.22254 -53.08289,-23.22254 z"
       style="fill:#a6a6a6;fill-opacity:1;fill-rule:evenodd;stroke:none" />
    <path
       inkscape:connector-curvature="0"
       id="path3438"
       d="m 367.33036,408.48048 c -29.33136,0 -53.08318,10.40934 -53.08318,23.22254 0,12.83519 23.75182,23.22238 53.08318,23.22238 29.30906,0 53.08289,-10.38719 53.08289,-23.22238 0,-12.8132 -23.77383,-23.22254 -53.08289,-23.22254"
       style="fill:none;stroke:#000000;stroke-width:0.94830716px;stroke-linecap:butt;stroke-linejoin:round;stroke-miterlimit:4;stroke-dasharray:none;stroke-opacity:1" />
    <path
       inkscape:connector-curvature="0"
       id="path3440"
       d="m 221.07038,449.27982 c -16.29765,2.18327 -27.7876,16.82694 -25.67045,32.74963 2.11715,15.90069 17.02542,27.05976 33.32319,24.8985 16.29749,-2.16126 27.7876,-16.82694 25.67037,-32.74964 -2.11723,-15.90068 -17.02534,-27.05974 -33.32311,-24.89849 z"
       style="fill:#a6a6a6;fill-opacity:1;fill-rule:evenodd;stroke:none" />
    <path
       transform="matrix(0.28222222,0,0,0.28222222,190.6584,393.13115)"
       inkscape:connector-curvature="0"
       id="path3442"
       d="m 107.759,198.952 c -57.7476,7.736 -98.46,59.623 -90.9583,116.042 7.5017,56.341 60.3263,95.881 118.0743,88.223 57.747,-7.658 98.46,-59.623 90.958,-116.042 -7.502,-56.341 -60.326,-95.881 -118.074,-88.223"
       clip-path="url(#clipEmfPath1-8)"
       style="fill:none;stroke:#000000;stroke-width:3.36014342px;stroke-linecap:butt;stroke-linejoin:round;stroke-miterlimit:4;stroke-dasharray:none;stroke-opacity:1" />
    <path
       inkscape:connector-curvature="0"
       id="path3444"
       d="m 251.50438,476.42791 c -18.08395,2.40368 -31.40428,14.31262 -29.77247,26.64065 1.63209,12.30602 17.62083,20.33355 35.68277,17.92958 18.08424,-2.40369 31.42657,-14.33463 29.79448,-26.64065 -1.63181,-12.30602 -17.62082,-20.33355 -35.70478,-17.92958 z"
       style="fill:#a6a6a6;fill-opacity:1;fill-rule:evenodd;stroke:none" />
    <path
       inkscape:connector-curvature="0"
       id="path3446"
       d="m 251.50438,476.42791 c -18.08395,2.40368 -31.40428,14.31262 -29.77247,26.64065 1.63209,12.30602 17.62083,20.33355 35.68277,17.92958 18.08424,-2.40369 31.42657,-14.33463 29.79448,-26.64065 -1.63181,-12.30602 -17.62082,-20.33355 -35.70478,-17.92958"
       style="fill:none;stroke:#000000;stroke-width:0.94830716px;stroke-linecap:butt;stroke-linejoin:round;stroke-miterlimit:4;stroke-dasharray:none;stroke-opacity:1" />
    <path
       inkscape:connector-curvature="0"
       id="path3448"
       d="m 303.70533,426.25585 c -53.78873,10.85032 -93.86025,37.05014 -89.51569,58.53035 4.32251,21.45821 51.42924,30.05921 105.19596,19.20861 53.76672,-10.85031 93.83832,-37.05013 89.51581,-58.50834 -4.34453,-21.48021 -51.42907,-30.08113 -105.19608,-19.23062 z"
       style="fill:#a6a6a6;fill-opacity:1;fill-rule:evenodd;stroke:none" />
    <path
       inkscape:connector-curvature="0"
       id="path3450"
       d="m 321.81158,528.60685 -40.35834,20.28924 36.21222,23.44307 -12.28401,6.90287 34.31568,21.85501 -10.54184,5.31509 55.22242,34.88887 -32.57324,-45.51877 8.64503,-4.54322 -26.3542,-27.17009 8.62302,-3.74904 z"
       style="fill:#ffc000;fill-opacity:1;fill-rule:evenodd;stroke:none" />
    <path
       transform="matrix(0.28222222,0,0,0.28222222,190.6584,393.13115)"
       inkscape:connector-curvature="0"
       id="path3452"
       d="m 464.716,480.032 -143.002,71.891 128.311,83.066 -43.526,24.459 121.591,77.439 -37.353,18.833 195.67,123.622 -115.417,-161.287 30.632,-16.098 -93.381,-96.272 30.554,-13.284 z"
       clip-path="url(#clipEmfPath1-8)"
       style="fill:none;stroke:#000000;stroke-width:3.36014342px;stroke-linecap:butt;stroke-linejoin:miter;stroke-miterlimit:8;stroke-dasharray:none;stroke-opacity:1" />
  </g>
</svg>
